<svg id="svg" version="1.1" xmlns="http://www.w3.org/2000/svg" xmlns:xlink="http://www.w3.org/1999/xlink" width="400" height="225" viewBox="0, 0, 400,225"><g id="svgg"><path id="path0" d="" stroke="none" fill="#ecdc14" fill-rule="evenodd"></path><path id="path1" d="M342.664 82.971 C 324.135 97.321,308.972 109.109,308.969 109.167 C 308.966 109.224,314.095 110.994,320.367 113.101 C 326.639 115.208,331.802 116.957,331.840 116.989 C 331.878 117.021,324.793 127.392,316.097 140.034 C 298.587 165.490,299.850 163.626,300.187 163.514 C 300.498 163.411,364.764 111.188,364.780 111.026 C 364.786 110.960,360.251 109.044,354.701 106.769 L 344.609 102.632 344.984 102.097 C 345.190 101.803,352.338 91.625,360.869 79.479 C 377.791 55.388,376.762 56.874,376.523 56.877 C 376.430 56.878,361.194 68.620,342.664 82.971 M231.667 82.654 C 230.807 82.682,224.995 82.739,218.750 82.780 C 208.218 82.849,206.852 82.892,205.417 83.197 C 205.130 83.258,204.527 83.364,204.076 83.432 C 203.625 83.500,202.960 83.738,202.598 83.962 C 202.235 84.186,201.883 84.313,201.814 84.244 C 201.649 84.080,199.734 84.998,199.526 85.341 C 199.437 85.488,199.233 85.557,199.073 85.496 C 198.909 85.433,198.680 85.576,198.547 85.823 C 198.418 86.064,198.223 86.207,198.115 86.139 C 198.006 86.072,197.917 86.122,197.917 86.250 C 197.917 86.378,197.829 86.429,197.721 86.362 C 197.614 86.296,197.450 86.370,197.357 86.528 C 197.264 86.685,197.089 86.851,196.968 86.897 C 196.607 87.032,193.750 90.133,193.750 90.389 C 193.750 90.519,193.651 90.625,193.529 90.625 C 193.408 90.625,193.367 90.719,193.438 90.833 C 193.508 90.948,193.488 91.042,193.393 91.042 C 193.195 91.042,192.284 92.657,192.219 93.125 C 192.195 93.297,192.113 93.538,192.036 93.660 C 191.960 93.783,191.850 94.143,191.792 94.460 C 191.735 94.777,191.579 95.167,191.446 95.328 C 191.312 95.488,191.257 95.759,191.322 95.928 C 191.387 96.098,191.359 96.287,191.259 96.349 C 191.159 96.410,191.015 96.835,190.937 97.293 C 190.677 98.833,190.638 99.059,190.431 100.182 C 190.318 100.797,190.233 101.360,190.242 101.432 C 190.250 101.504,190.235 101.633,190.207 101.719 C 190.179 101.805,190.137 102.039,190.113 102.240 C 190.090 102.440,190.006 102.839,189.927 103.125 C 189.849 103.411,189.741 103.927,189.687 104.271 C 189.633 104.615,189.458 105.646,189.298 106.563 C 188.853 109.103,189.178 113.958,189.792 113.958 C 189.888 113.958,190.030 114.246,190.107 114.597 C 190.184 114.949,190.379 115.287,190.540 115.349 C 190.702 115.411,190.833 115.551,190.833 115.662 C 190.833 116.711,195.881 119.649,197.255 119.400 C 197.407 119.372,197.660 119.457,197.819 119.589 C 197.977 119.720,198.209 119.765,198.333 119.688 C 198.458 119.610,198.673 119.639,198.811 119.751 C 199.038 119.935,200.545 120.188,202.188 120.317 C 202.531 120.344,202.966 120.430,203.154 120.509 C 203.342 120.588,204.021 120.669,204.664 120.691 C 205.306 120.712,205.832 120.779,205.832 120.840 C 205.833 120.901,206.091 120.937,206.406 120.920 C 206.721 120.903,207.073 120.957,207.188 121.041 C 207.302 121.125,207.536 121.199,207.708 121.205 C 208.203 121.224,210.313 121.433,210.313 121.463 C 210.313 121.502,211.046 121.646,211.771 121.749 C 212.586 121.865,213.631 122.272,213.485 122.417 C 213.423 122.480,213.455 122.824,213.558 123.181 C 213.679 123.604,213.659 124.127,213.501 124.676 C 213.368 125.141,213.252 125.568,213.244 125.625 C 213.207 125.890,212.144 126.780,211.771 126.859 C 211.542 126.907,205.996 126.976,199.448 127.013 C 192.899 127.050,187.367 127.106,187.154 127.139 C 186.738 127.202,185.615 127.917,185.931 127.917 C 186.036 127.917,185.962 128.034,185.767 128.177 C 185.571 128.320,185.366 128.648,185.310 128.906 C 185.060 130.059,185.018 130.219,184.930 130.365 C 184.879 130.451,184.775 130.983,184.699 131.548 C 184.623 132.113,184.530 132.629,184.491 132.694 C 184.452 132.759,184.358 133.275,184.282 133.840 C 184.207 134.405,184.113 134.920,184.074 134.986 C 184.035 135.051,183.941 135.566,183.866 136.131 C 183.790 136.696,183.696 137.212,183.657 137.277 C 183.542 137.471,183.290 139.396,183.226 140.578 C 183.171 141.608,183.211 141.711,183.857 142.204 L 184.547 142.730 200.451 142.639 C 235.243 142.438,233.125 142.469,233.125 142.161 C 233.125 142.004,233.195 141.886,233.281 141.900 C 233.860 141.991,233.964 141.821,233.929 140.837 C 233.901 140.031,233.807 139.772,233.509 139.677 C 233.298 139.610,233.125 139.466,233.125 139.357 C 233.125 139.240,231.751 139.166,229.740 139.175 C 225.138 139.196,225.411 139.217,225.550 138.854 C 225.616 138.682,225.775 138.542,225.904 138.542 C 226.033 138.542,226.885 137.768,227.797 136.823 L 229.456 135.104 228.218 135.053 C 225.396 134.935,224.524 134.249,225.319 132.773 C 225.718 132.032,225.495 132.086,228.542 132.000 C 228.943 131.988,229.506 132.036,229.794 132.106 C 230.081 132.177,230.550 132.141,230.835 132.028 C 231.140 131.907,234.119 131.824,238.067 131.826 L 244.779 131.830 245.310 131.338 C 245.961 130.735,245.956 129.697,245.299 129.034 C 244.867 128.599,244.706 128.587,238.538 128.570 C 232.126 128.553,231.662 128.496,232.049 127.772 C 232.229 127.436,232.471 125.937,232.529 124.792 C 232.538 124.620,232.680 124.065,232.844 123.560 C 233.009 123.054,233.096 122.518,233.039 122.368 C 232.982 122.219,233.026 122.040,233.137 121.971 C 233.249 121.903,233.285 121.757,233.218 121.649 C 233.151 121.540,233.009 121.505,232.902 121.571 C 232.796 121.637,232.708 121.614,232.708 121.519 C 232.708 121.424,232.333 121.346,231.875 121.346 C 231.417 121.346,231.042 121.422,231.042 121.514 C 231.042 121.606,230.875 121.592,230.672 121.483 C 230.437 121.358,230.170 121.359,229.943 121.486 C 229.745 121.597,229.583 121.611,229.583 121.517 C 229.583 121.423,229.208 121.346,228.750 121.346 C 228.292 121.346,227.917 121.409,227.917 121.487 C 227.917 121.758,227.090 121.408,226.553 120.911 C 225.559 119.989,226.712 117.807,227.813 118.528 C 228.089 118.709,229.415 118.677,229.725 118.481 C 229.860 118.396,230.033 118.426,230.108 118.548 C 230.205 118.704,230.327 118.702,230.521 118.542 C 230.672 118.416,230.845 118.392,230.905 118.490 C 231.036 118.702,232.503 118.694,232.850 118.479 C 232.985 118.395,233.156 118.423,233.229 118.542 C 233.302 118.660,233.465 118.693,233.591 118.615 C 233.718 118.537,235.848 118.477,238.325 118.482 C 243.436 118.492,243.958 118.342,243.958 116.857 C 243.958 115.370,243.412 115.209,238.385 115.209 L 233.958 115.208 233.932 114.635 C 233.917 114.320,233.868 113.828,233.823 113.542 C 233.778 113.255,233.728 112.912,233.711 112.778 C 233.676 112.503,232.708 112.256,232.708 112.522 C 232.708 112.617,232.574 112.644,232.410 112.581 C 232.246 112.518,230.723 112.440,229.025 112.409 C 225.206 112.337,225.576 112.409,225.129 111.653 C 224.675 110.885,224.969 109.872,225.731 109.583 C 225.982 109.487,230.834 109.443,236.513 109.485 L 246.839 109.561 247.382 109.058 C 248.049 108.439,248.044 107.409,247.371 106.731 L 246.919 106.275 236.919 106.266 C 231.420 106.261,226.699 106.175,226.429 106.075 C 226.159 105.975,225.817 105.935,225.670 105.987 C 225.523 106.039,225.269 105.970,225.106 105.835 C 224.943 105.700,224.708 105.652,224.583 105.729 C 224.459 105.806,224.244 105.782,224.105 105.675 C 223.967 105.569,223.010 105.369,221.979 105.231 C 220.948 105.093,219.469 104.882,218.692 104.762 C 217.915 104.642,217.144 104.595,216.980 104.659 C 216.815 104.722,216.628 104.690,216.565 104.587 C 216.501 104.485,216.248 104.440,216.001 104.487 C 215.754 104.535,215.451 104.494,215.328 104.397 C 215.205 104.300,214.495 104.158,213.750 104.082 C 209.777 103.672,209.083 103.288,209.274 101.600 C 209.620 98.544,209.758 98.509,220.939 98.584 C 226.038 98.618,230.093 98.611,229.949 98.569 C 229.226 98.355,228.580 96.671,229.219 96.663 C 229.422 96.661,229.420 96.623,229.212 96.491 C 229.030 96.376,229.215 96.232,229.786 96.044 C 230.249 95.891,230.686 95.825,230.758 95.896 C 230.829 95.968,231.075 95.927,231.303 95.805 C 231.530 95.683,231.668 95.663,231.608 95.760 C 231.547 95.858,232.263 95.925,233.197 95.909 C 234.131 95.893,236.611 95.870,238.708 95.857 C 242.493 95.834,242.523 95.830,243.003 95.313 C 243.661 94.603,243.737 94.652,243.514 95.645 C 243.163 97.209,244.163 99.163,245.037 98.623 C 245.131 98.565,245.208 98.611,245.208 98.726 C 245.208 98.862,247.470 98.942,251.603 98.952 C 255.119 98.962,258.017 98.990,258.041 99.016 C 258.066 99.041,257.953 99.813,257.791 100.729 C 257.629 101.646,257.451 102.724,257.397 103.125 C 257.342 103.526,257.164 104.510,257.000 105.313 C 256.836 106.115,256.657 107.052,256.602 107.396 C 256.547 107.740,256.443 108.255,256.371 108.542 C 256.299 108.828,256.208 109.391,256.170 109.792 C 256.132 110.193,256.048 110.661,255.983 110.833 C 255.841 111.213,255.425 113.579,255.324 114.583 C 255.283 114.984,255.197 115.453,255.132 115.625 C 255.066 115.797,254.965 116.313,254.906 116.771 C 254.848 117.229,254.713 117.960,254.607 118.395 C 254.501 118.830,254.440 119.345,254.472 119.541 C 254.504 119.736,254.474 119.990,254.406 120.104 C 254.266 120.340,254.192 120.666,254.076 121.563 C 254.031 121.906,253.975 122.234,253.952 122.292 C 253.928 122.349,253.919 122.463,253.931 122.545 C 253.943 122.627,253.869 122.916,253.766 123.187 C 253.553 123.748,253.254 125.705,253.275 126.406 C 253.283 126.664,253.221 126.875,253.138 126.875 C 253.054 126.875,252.972 126.992,252.954 127.135 C 252.937 127.279,252.885 127.724,252.838 128.125 C 252.792 128.526,252.688 129.014,252.608 129.209 C 252.529 129.404,252.520 129.655,252.589 129.767 C 252.658 129.879,252.614 130.034,252.491 130.110 C 252.368 130.186,252.287 130.450,252.310 130.697 C 252.334 130.944,252.288 131.296,252.208 131.479 C 252.128 131.663,252.082 131.897,252.106 132.000 C 252.130 132.103,252.089 132.328,252.015 132.500 C 251.940 132.672,251.845 133.188,251.803 133.646 C 251.760 134.104,251.654 134.647,251.566 134.853 C 251.479 135.058,251.462 135.281,251.529 135.349 C 251.597 135.416,251.571 135.623,251.472 135.809 C 251.372 135.994,251.226 136.661,251.146 137.292 C 251.066 137.922,250.961 138.503,250.912 138.582 C 250.416 139.389,250.693 141.697,251.346 142.196 L 252.037 142.722 260.297 142.663 C 265.884 142.623,268.605 142.532,268.706 142.381 C 268.787 142.258,269.024 142.094,269.232 142.018 C 269.440 141.941,269.551 141.784,269.480 141.668 C 269.409 141.553,269.455 141.458,269.583 141.458 C 269.711 141.458,269.758 141.365,269.688 141.250 C 269.617 141.135,269.637 141.042,269.734 141.042 C 269.972 141.042,270.419 139.817,270.224 139.697 C 270.138 139.644,269.326 139.586,268.419 139.568 C 266.261 139.525,265.328 138.954,265.640 137.866 C 266.041 136.467,265.533 136.521,277.652 136.598 C 290.773 136.682,290.760 136.685,290.592 134.622 C 290.487 133.328,290.900 133.381,280.984 133.365 C 270.812 133.349,271.437 133.419,271.683 132.323 C 271.782 131.881,271.909 131.200,271.964 130.811 C 272.091 129.926,272.259 129.009,272.420 128.333 C 272.677 127.250,272.728 126.666,272.565 126.657 C 272.472 126.651,271.167 126.635,269.664 126.621 L 266.933 126.596 266.681 125.898 C 266.292 124.824,266.690 123.826,267.561 123.686 C 267.929 123.627,274.393 123.611,281.927 123.651 C 294.387 123.717,295.625 123.693,295.625 123.390 C 295.625 123.206,295.687 123.117,295.762 123.193 C 296.049 123.479,296.458 122.834,296.458 122.095 C 296.458 120.403,296.749 120.449,285.901 120.436 C 280.650 120.430,275.803 120.423,275.130 120.421 L 273.906 120.417 274.031 119.792 C 274.170 119.096,274.246 119.122,272.083 119.124 C 270.303 119.126,269.266 118.274,269.810 117.258 C 269.922 117.047,269.944 116.875,269.857 116.875 C 269.770 116.875,269.922 116.719,270.195 116.528 C 270.705 116.170,271.822 116.064,272.255 116.332 C 272.390 116.415,272.500 116.397,272.500 116.291 C 272.500 116.179,275.373 116.082,279.426 116.059 C 287.241 116.013,287.292 116.002,287.292 114.433 C 287.292 112.834,286.989 112.758,280.761 112.787 L 275.276 112.813 275.437 112.083 C 275.650 111.122,275.862 109.640,275.904 108.822 C 275.922 108.461,276.004 108.206,276.085 108.256 C 276.166 108.306,276.216 108.133,276.197 107.871 C 276.089 106.399,276.396 106.042,277.777 106.034 C 278.484 106.030,285.137 106.026,292.562 106.024 C 307.831 106.021,306.875 106.129,306.875 104.401 C 306.875 103.742,306.258 102.617,306.247 103.256 C 306.245 103.356,306.155 103.297,306.046 103.125 C 305.874 102.853,304.052 102.808,291.935 102.780 C 284.282 102.762,277.828 102.738,277.592 102.728 C 277.122 102.706,277.114 102.541,277.492 100.437 C 277.603 99.818,277.648 99.237,277.591 99.146 C 277.535 99.055,280.317 98.974,283.773 98.964 C 290.684 98.946,291.615 98.834,292.538 97.911 L 293.157 97.292 297.204 97.292 C 301.690 97.292,302.083 97.177,302.083 95.875 C 302.083 95.175,301.645 94.167,301.354 94.195 C 301.240 94.207,299.544 94.205,297.587 94.191 L 294.028 94.167 294.028 93.229 C 294.028 92.714,294.111 92.292,294.214 92.292 C 294.316 92.292,294.342 92.198,294.271 92.083 C 294.186 91.946,296.908 91.875,302.279 91.875 C 311.790 91.875,312.144 91.771,310.990 89.322 L 310.729 88.769 303.138 88.755 C 298.963 88.747,295.505 88.699,295.454 88.649 C 295.403 88.598,295.187 88.650,294.973 88.765 C 294.759 88.879,294.583 88.898,294.583 88.805 C 294.583 88.713,294.208 88.638,293.750 88.638 C 293.292 88.638,292.917 88.713,292.917 88.805 C 292.917 88.898,292.750 88.884,292.547 88.775 C 292.312 88.649,292.045 88.650,291.818 88.778 C 291.620 88.889,291.458 88.901,291.458 88.805 C 291.458 88.709,291.294 88.619,291.094 88.604 C 290.211 88.537,289.892 88.371,289.829 87.947 C 289.792 87.698,289.695 87.535,289.613 87.586 C 289.531 87.636,289.464 87.504,289.464 87.292 C 289.464 87.079,289.538 86.951,289.628 87.007 C 289.718 87.062,289.792 86.920,289.792 86.691 C 289.792 86.139,290.046 86.008,291.240 85.944 C 291.790 85.914,292.339 85.829,292.460 85.754 C 292.581 85.679,292.727 85.695,292.784 85.788 C 292.912 85.995,294.384 85.982,294.725 85.770 C 294.860 85.687,295.019 85.695,295.077 85.790 C 295.269 86.100,303.021 85.970,303.406 85.651 C 303.593 85.496,303.694 85.286,303.631 85.185 C 303.568 85.083,303.663 85.000,303.842 85.000 C 304.276 85.000,304.287 83.783,303.855 83.617 C 303.684 83.552,303.596 83.414,303.660 83.311 C 303.827 83.040,302.814 82.707,301.807 82.702 C 295.165 82.668,289.837 82.667,270.270 82.692 L 247.312 82.722 246.454 83.546 C 245.983 83.999,245.656 84.464,245.727 84.580 C 245.799 84.697,245.749 84.792,245.615 84.792 C 245.481 84.792,245.425 84.929,245.489 85.097 C 245.554 85.266,245.526 85.453,245.427 85.514 C 245.328 85.575,245.184 86.118,245.107 86.719 C 245.030 87.320,244.887 88.141,244.789 88.542 C 244.691 88.943,244.559 89.621,244.495 90.048 C 244.431 90.476,244.282 91.255,244.164 91.781 C 244.047 92.306,244.005 92.823,244.071 92.930 C 244.137 93.037,244.118 93.242,244.029 93.385 C 243.939 93.529,243.838 93.828,243.803 94.050 C 243.708 94.664,243.542 94.719,243.542 94.136 C 243.542 93.843,243.291 93.379,242.963 93.065 L 242.384 92.510 239.023 92.579 L 235.662 92.649 235.568 92.158 C 235.517 91.888,235.535 91.667,235.610 91.667 C 235.737 91.667,235.865 90.903,235.915 89.844 C 235.927 89.586,236.008 89.375,236.094 89.375 C 236.180 89.375,236.250 89.258,236.250 89.115 C 236.250 88.925,235.756 88.859,234.427 88.872 C 231.881 88.897,230.840 88.239,231.493 87.019 C 231.627 86.768,231.718 86.516,231.694 86.458 C 231.670 86.401,231.843 86.324,232.078 86.287 C 232.314 86.250,232.467 86.157,232.419 86.079 C 232.371 86.001,232.815 85.951,233.405 85.967 C 240.532 86.163,243.278 85.133,241.094 83.082 L 240.521 82.544 236.875 82.574 C 234.870 82.590,232.526 82.627,231.667 82.654 M32.029 82.933 C 31.501 83.243,30.713 84.062,30.514 84.510 C 30.345 84.889,30.320 84.993,30.143 86.042 C 30.095 86.328,30.004 86.703,29.941 86.875 C 29.878 87.047,29.825 87.328,29.822 87.500 C 29.816 87.928,29.662 88.788,29.524 89.167 C 29.461 89.339,29.408 89.620,29.406 89.792 C 29.400 90.220,29.246 91.080,29.108 91.458 C 29.045 91.630,28.991 91.911,28.989 92.083 C 28.983 92.511,28.829 93.372,28.691 93.750 C 28.628 93.922,28.571 94.203,28.565 94.375 C 28.558 94.547,28.498 95.252,28.430 95.942 C 28.303 97.254,28.968 98.609,29.561 98.243 C 29.688 98.165,29.792 98.176,29.792 98.269 C 29.792 98.362,34.273 98.438,39.749 98.438 C 51.299 98.438,50.936 98.380,50.775 100.171 C 50.660 101.443,49.167 104.251,49.167 103.194 C 49.167 103.128,49.042 103.177,48.890 103.304 C 48.615 103.532,47.948 103.705,47.227 103.735 C 47.020 103.743,46.894 103.820,46.947 103.906 C 47.000 103.992,46.842 104.074,46.595 104.089 C 45.829 104.134,45.141 104.355,44.987 104.604 C 44.906 104.735,44.712 104.798,44.555 104.744 C 44.249 104.637,42.452 105.110,41.771 105.477 C 41.542 105.600,41.029 105.736,40.631 105.778 C 40.233 105.820,39.853 105.943,39.785 106.052 C 39.718 106.160,39.368 106.283,39.007 106.325 C 38.039 106.438,35.625 107.158,35.625 107.335 C 35.625 107.418,35.469 107.427,35.278 107.354 C 35.026 107.257,34.978 107.296,35.103 107.497 C 35.230 107.704,35.163 107.745,34.838 107.660 C 34.598 107.597,34.221 107.673,33.999 107.828 C 33.778 107.983,33.552 108.066,33.499 108.013 C 33.341 107.855,32.083 108.355,32.083 108.574 C 32.083 108.684,31.990 108.717,31.875 108.646 C 31.760 108.575,31.667 108.613,31.667 108.731 C 31.667 108.849,31.526 108.891,31.354 108.825 C 31.182 108.759,31.042 108.809,31.042 108.936 C 31.042 109.063,30.971 109.144,30.885 109.117 C 30.631 109.036,29.375 109.618,29.375 109.817 C 29.375 109.918,29.228 110.000,29.048 110.000 C 28.868 110.000,28.590 110.117,28.430 110.260 C 27.740 110.879,27.538 111.010,27.435 110.907 C 27.374 110.847,26.698 111.415,25.932 112.169 C 25.167 112.924,24.586 113.542,24.642 113.542 C 24.698 113.542,24.430 113.885,24.046 114.304 C 23.206 115.220,22.028 117.450,22.219 117.760 C 22.298 117.886,22.258 117.920,22.126 117.839 C 21.978 117.748,21.735 118.239,21.447 119.213 C 21.200 120.047,20.926 120.823,20.838 120.938 C 20.750 121.052,20.705 121.310,20.737 121.510 C 20.770 121.711,20.721 121.875,20.630 121.875 C 20.471 121.875,20.216 122.845,20.083 123.958 C 20.009 124.576,19.868 125.277,19.500 126.855 C 19.351 127.496,19.261 128.232,19.301 128.490 C 19.340 128.747,19.274 128.958,19.153 128.958 C 19.032 128.958,18.980 129.034,19.037 129.126 C 19.094 129.218,19.058 129.663,18.957 130.115 C 18.856 130.568,18.720 131.242,18.654 131.614 C 18.589 131.986,18.401 132.877,18.236 133.593 C 18.071 134.310,17.916 135.318,17.893 135.833 C 17.869 136.349,17.775 136.921,17.684 137.105 C 17.593 137.289,17.474 137.804,17.420 138.251 C 17.366 138.697,17.301 139.063,17.276 139.063 C 17.252 139.063,17.211 139.646,17.186 140.359 C 17.162 141.072,17.222 141.606,17.321 141.545 C 17.419 141.484,17.500 141.575,17.500 141.747 C 17.500 142.739,16.971 142.716,39.545 142.704 C 55.701 142.696,60.761 142.634,61.108 142.441 C 61.672 142.127,62.703 141.044,62.724 140.744 C 62.733 140.621,62.771 140.380,62.809 140.208 C 63.010 139.290,63.147 138.580,63.232 138.021 C 63.284 137.677,63.379 137.161,63.442 136.875 C 63.505 136.589,63.598 136.073,63.650 135.729 C 63.702 135.385,63.795 134.870,63.858 134.583 C 63.921 134.297,64.015 133.781,64.067 133.438 C 64.118 133.094,64.212 132.578,64.275 132.292 C 64.866 129.608,64.879 128.292,64.324 127.646 L 63.841 127.083 51.065 127.083 C 38.978 127.083,38.297 127.064,38.441 126.719 C 38.525 126.518,38.666 126.026,38.753 125.625 C 38.928 124.824,39.545 123.133,39.569 123.391 C 39.577 123.480,39.874 123.402,40.229 123.219 C 40.584 123.035,41.076 122.846,41.322 122.799 C 42.673 122.542,53.891 119.055,54.126 118.820 C 54.436 118.510,54.667 118.446,54.500 118.716 C 54.441 118.812,54.716 118.789,55.113 118.665 C 55.509 118.541,55.833 118.363,55.833 118.270 C 55.833 118.177,55.916 118.152,56.018 118.214 C 56.254 118.360,57.500 117.931,57.500 117.705 C 57.500 117.610,57.805 117.469,58.177 117.390 C 58.959 117.225,61.250 116.059,61.250 115.827 C 61.250 115.741,61.478 115.613,61.756 115.543 C 62.035 115.473,62.597 115.100,63.006 114.715 C 63.415 114.329,63.750 114.044,63.750 114.082 C 63.750 114.528,66.758 110.904,67.010 110.156 C 67.077 109.956,67.225 109.792,67.338 109.792 C 67.452 109.792,67.491 109.651,67.425 109.479 C 67.359 109.307,67.396 109.167,67.507 109.167 C 67.618 109.167,67.708 108.979,67.708 108.750 C 67.708 108.521,67.802 108.333,67.917 108.333 C 68.031 108.333,68.125 108.099,68.125 107.813 C 68.125 107.526,68.234 107.292,68.368 107.292 C 68.502 107.292,68.549 107.230,68.474 107.155 C 68.399 107.079,68.433 106.902,68.551 106.760 C 68.668 106.618,68.746 106.422,68.723 106.324 C 68.700 106.226,68.748 105.911,68.829 105.625 C 68.910 105.339,69.002 104.866,69.033 104.575 C 69.063 104.283,69.143 103.955,69.210 103.845 C 69.370 103.584,70.053 99.466,70.082 98.594 C 70.094 98.222,70.159 97.917,70.226 97.917 C 70.293 97.917,70.356 97.799,70.367 97.656 C 70.438 96.732,70.580 95.866,70.691 95.686 C 70.893 95.359,70.711 89.976,70.493 89.823 C 70.386 89.749,70.308 89.547,70.319 89.375 C 70.345 88.984,69.811 87.864,69.502 87.659 C 69.375 87.575,69.340 87.505,69.425 87.503 C 69.636 87.499,69.019 86.769,68.036 85.860 C 67.586 85.444,67.055 84.948,66.856 84.757 C 66.656 84.566,66.438 84.464,66.372 84.531 C 66.305 84.598,66.250 84.543,66.250 84.410 C 66.250 84.276,66.155 84.167,66.039 84.167 C 65.924 84.167,65.431 83.983,64.946 83.759 C 64.460 83.535,63.781 83.325,63.438 83.291 C 63.094 83.257,62.746 83.135,62.664 83.021 C 62.454 82.727,32.526 82.641,32.029 82.933 M85.363 82.936 C 84.510 83.429,83.755 84.416,83.623 85.208 C 83.595 85.380,83.518 85.755,83.453 86.042 C 83.388 86.328,83.240 87.078,83.125 87.708 C 83.010 88.339,82.876 89.053,82.829 89.297 C 82.781 89.540,82.687 90.055,82.620 90.442 C 82.552 90.829,82.325 92.012,82.116 93.070 C 81.906 94.129,81.760 95.230,81.791 95.518 C 81.821 95.806,81.768 96.042,81.672 96.042 C 81.521 96.042,81.268 97.271,81.135 98.646 C 81.113 98.875,81.026 99.227,80.942 99.427 C 80.858 99.628,80.839 99.923,80.901 100.084 C 80.963 100.244,80.955 100.434,80.884 100.505 C 80.813 100.576,80.730 100.796,80.698 100.994 C 80.667 101.192,80.595 101.589,80.539 101.875 C 80.483 102.161,80.390 102.677,80.332 103.021 C 80.235 103.594,80.180 103.883,79.879 105.417 C 79.633 106.665,79.174 109.347,79.058 110.208 C 78.861 111.668,78.842 111.765,78.715 111.983 C 78.598 112.182,78.369 113.531,78.202 115.000 C 78.115 115.770,77.970 116.563,77.917 116.563 C 77.877 116.563,77.812 116.871,77.522 118.438 C 77.394 119.125,77.251 119.887,77.204 120.130 C 77.156 120.373,77.062 120.889,76.995 121.276 C 76.927 121.663,76.700 122.845,76.491 123.904 C 76.281 124.962,76.135 126.064,76.166 126.351 C 76.196 126.639,76.143 126.875,76.047 126.875 C 75.896 126.875,75.643 128.105,75.510 129.479 C 75.488 129.708,75.401 130.060,75.317 130.260 C 75.233 130.461,75.214 130.756,75.276 130.917 C 75.338 131.078,75.330 131.267,75.259 131.338 C 75.188 131.409,75.105 131.629,75.073 131.827 C 75.042 132.025,74.970 132.422,74.914 132.708 C 74.858 132.995,74.765 133.510,74.707 133.854 C 74.649 134.198,74.550 134.737,74.488 135.052 C 74.426 135.367,74.334 135.836,74.285 136.094 C 74.235 136.352,74.091 137.078,73.966 137.708 C 73.421 140.433,73.499 141.613,74.259 142.192 L 74.945 142.716 82.779 142.703 C 89.439 142.693,90.659 142.644,90.924 142.380 C 91.095 142.209,91.289 142.075,91.354 142.083 C 91.571 142.110,92.066 141.510,91.935 141.379 C 91.864 141.308,91.915 141.250,92.049 141.250 C 92.182 141.250,92.272 141.180,92.247 141.094 C 92.223 141.008,92.324 140.719,92.473 140.451 C 92.621 140.183,92.691 139.913,92.628 139.851 C 92.566 139.788,92.596 139.585,92.695 139.400 C 92.794 139.214,92.929 138.594,92.994 138.021 C 93.060 137.448,93.166 136.745,93.231 136.458 C 93.295 136.172,93.387 135.703,93.435 135.417 C 93.483 135.130,93.577 134.661,93.644 134.375 C 93.711 134.089,93.817 133.432,93.880 132.917 C 93.942 132.401,94.169 131.229,94.383 130.313 C 94.885 128.163,95.256 125.811,95.114 125.670 C 95.053 125.609,95.102 125.441,95.221 125.297 C 95.411 125.069,95.505 124.644,95.601 123.594 C 95.620 123.390,97.334 123.333,103.414 123.333 C 111.875 123.333,111.836 123.338,112.870 122.147 C 113.496 121.425,113.756 120.781,113.648 120.220 C 113.603 119.985,113.635 119.792,113.720 119.792 C 113.805 119.792,113.885 119.581,113.896 119.323 C 113.908 119.065,113.979 118.620,114.054 118.333 C 114.128 118.047,114.329 116.969,114.500 115.938 C 114.812 114.059,114.883 113.670,115.090 112.717 C 115.734 109.753,115.692 108.568,114.917 107.851 L 114.314 107.292 106.442 107.292 L 98.570 107.292 98.621 106.814 C 98.649 106.551,98.732 106.240,98.804 106.122 C 98.926 105.925,99.212 103.935,99.243 103.073 C 99.250 102.872,99.335 102.708,99.432 102.708 C 99.529 102.708,99.560 102.630,99.501 102.535 C 99.442 102.440,99.515 101.901,99.664 101.337 C 99.812 100.774,99.922 100.062,99.908 99.756 C 99.895 99.449,99.967 99.250,100.068 99.313 C 100.170 99.376,100.189 99.224,100.110 98.977 L 99.967 98.526 111.077 98.542 C 117.188 98.551,122.234 98.547,122.292 98.534 C 122.349 98.521,122.617 98.470,122.887 98.420 C 123.379 98.329,124.403 97.366,124.565 96.841 C 125.016 95.384,125.416 93.534,125.463 92.694 C 125.495 92.130,125.571 91.668,125.633 91.668 C 125.740 91.667,125.868 90.842,125.915 89.844 C 125.927 89.586,126.019 89.375,126.118 89.375 C 126.217 89.375,126.250 89.188,126.190 88.959 C 126.130 88.729,126.160 88.493,126.256 88.434 C 126.353 88.374,126.426 88.163,126.418 87.965 C 126.411 87.766,126.494 87.229,126.604 86.771 C 126.988 85.170,126.792 83.728,126.119 83.190 L 125.521 82.713 105.625 82.718 C 92.500 82.722,85.604 82.796,85.363 82.936 M145.208 82.955 C 145.208 83.087,145.150 83.136,145.079 83.065 C 145.008 82.995,144.814 83.073,144.648 83.239 C 144.481 83.406,144.173 83.542,143.962 83.542 C 143.545 83.542,142.587 84.569,142.218 85.411 C 142.091 85.701,141.909 85.994,141.813 86.063 C 141.717 86.131,141.619 86.324,141.594 86.491 C 141.570 86.658,141.431 86.930,141.285 87.095 C 141.021 87.394,140.682 87.992,139.754 89.792 C 139.488 90.307,139.214 90.776,139.144 90.833 C 139.074 90.891,138.662 91.594,138.228 92.396 C 137.794 93.198,137.360 93.957,137.263 94.082 C 137.166 94.207,137.149 94.371,137.224 94.446 C 137.299 94.522,137.252 94.583,137.118 94.583 C 136.984 94.583,136.875 94.724,136.875 94.896 C 136.875 95.068,136.784 95.208,136.673 95.208 C 136.562 95.208,136.531 95.364,136.604 95.555 C 136.688 95.772,136.655 95.851,136.516 95.765 C 136.391 95.687,136.238 95.853,136.164 96.147 C 136.092 96.433,135.942 96.667,135.829 96.667 C 135.717 96.667,135.625 96.758,135.625 96.869 C 135.625 96.980,135.222 97.754,134.729 98.588 C 133.877 100.030,133.437 100.932,133.580 100.942 C 133.616 100.945,133.456 101.152,133.223 101.401 C 132.990 101.651,132.429 102.586,131.975 103.480 C 131.521 104.373,131.102 105.151,131.044 105.208 C 130.985 105.266,130.662 105.898,130.326 106.615 C 129.990 107.331,129.662 107.917,129.597 107.918 C 129.400 107.921,128.962 109.004,129.081 109.196 C 129.141 109.294,129.086 109.375,128.958 109.375 C 128.830 109.375,128.783 109.469,128.854 109.583 C 128.925 109.698,128.878 109.792,128.750 109.792 C 128.622 109.792,128.575 109.885,128.646 110.000 C 128.717 110.115,128.670 110.208,128.542 110.208 C 128.414 110.208,128.367 110.302,128.438 110.417 C 128.508 110.531,128.490 110.625,128.396 110.625 C 128.193 110.625,127.360 112.393,127.218 113.125 C 127.163 113.412,126.963 113.949,126.774 114.320 C 126.585 114.691,126.407 115.211,126.379 115.475 C 126.351 115.739,126.254 116.075,126.164 116.221 C 126.074 116.367,126.055 116.542,126.123 116.609 C 126.191 116.677,126.140 116.861,126.010 117.017 C 125.880 117.174,125.833 117.361,125.906 117.434 C 125.979 117.506,125.945 117.678,125.832 117.814 C 125.718 117.951,125.602 118.545,125.573 119.134 C 125.544 119.723,125.445 120.206,125.352 120.207 C 125.259 120.208,125.227 120.485,125.280 120.823 C 125.333 121.160,125.295 121.465,125.195 121.500 C 125.095 121.534,124.955 122.031,124.883 122.604 C 124.659 124.402,124.618 124.688,124.584 124.688 C 124.543 124.688,124.454 125.115,124.301 126.060 C 124.234 126.471,124.133 126.939,124.076 127.101 C 124.019 127.263,123.923 127.771,123.862 128.229 C 123.760 128.996,123.588 129.986,123.227 131.875 C 123.151 132.276,123.061 132.885,123.029 133.229 C 122.996 133.573,122.901 134.018,122.817 134.219 C 122.733 134.419,122.718 134.724,122.784 134.896 C 122.850 135.068,122.821 135.208,122.720 135.208 C 122.619 135.208,122.563 135.372,122.596 135.573 C 122.628 135.773,122.578 136.085,122.485 136.265 C 122.392 136.446,122.263 137.102,122.197 137.724 C 122.061 139.018,121.998 139.342,121.787 139.826 C 121.527 140.421,121.856 141.706,122.396 142.206 L 122.909 142.681 130.504 142.693 C 137.049 142.703,138.143 142.661,138.417 142.387 C 138.592 142.212,138.789 142.075,138.854 142.083 C 139.071 142.110,139.566 141.510,139.435 141.379 C 139.364 141.308,139.431 141.250,139.583 141.250 C 139.736 141.250,139.799 141.188,139.724 141.113 C 139.649 141.038,139.693 140.848,139.823 140.692 C 139.952 140.536,140.093 140.199,140.135 139.944 C 140.177 139.688,140.313 138.870,140.437 138.125 C 140.561 137.380,140.677 136.513,140.696 136.198 C 140.714 135.884,140.791 135.626,140.867 135.625 C 140.943 135.625,140.978 135.461,140.946 135.260 C 140.913 135.060,140.970 134.791,141.072 134.662 C 141.174 134.533,141.290 134.017,141.330 133.516 C 141.370 133.014,141.461 132.464,141.532 132.292 C 141.604 132.120,141.697 131.604,141.739 131.146 C 141.781 130.688,141.881 130.162,141.960 129.979 C 142.039 129.796,142.087 129.561,142.066 129.458 C 142.045 129.355,142.099 128.966,142.186 128.594 L 142.344 127.917 149.736 127.917 C 156.692 127.917,157.119 127.938,156.984 128.281 C 156.904 128.482,156.809 128.786,156.772 128.958 C 156.736 129.130,156.653 129.505,156.588 129.792 C 156.470 130.316,156.322 131.289,156.132 132.790 C 156.075 133.237,155.993 133.660,155.948 133.732 C 155.904 133.804,155.807 134.283,155.734 134.796 C 155.660 135.309,155.459 136.339,155.286 137.083 C 154.640 139.879,154.706 141.580,155.483 142.173 L 156.159 142.688 163.828 142.688 C 169.408 142.688,171.619 142.620,171.946 142.438 C 172.542 142.106,173.535 141.037,173.568 140.692 C 173.582 140.540,173.611 140.346,173.632 140.260 C 173.924 139.054,174.014 138.586,174.060 138.042 C 174.089 137.687,174.183 137.232,174.267 137.031 C 174.351 136.831,174.366 136.526,174.300 136.354 C 174.234 136.182,174.281 136.042,174.405 136.042 C 174.537 136.042,174.593 135.783,174.539 135.417 C 174.488 135.073,174.529 134.792,174.629 134.792 C 174.728 134.792,174.791 134.674,174.767 134.531 C 174.743 134.388,174.788 134.036,174.867 133.750 C 174.946 133.464,175.047 132.854,175.092 132.396 C 175.137 131.938,175.191 131.563,175.213 131.563 C 175.235 131.563,175.278 131.281,175.308 130.938 C 175.338 130.594,175.386 130.289,175.416 130.260 C 175.515 130.163,175.750 128.987,175.926 127.708 C 175.981 127.307,176.168 126.240,176.341 125.337 C 176.515 124.434,176.607 123.613,176.545 123.514 C 176.484 123.415,176.517 123.333,176.620 123.333 C 176.722 123.333,176.814 123.216,176.824 123.073 C 176.847 122.757,177.048 121.342,177.172 120.625 C 177.255 120.138,177.313 119.867,177.615 118.542 C 178.032 116.713,178.139 110.409,177.770 109.375 C 177.709 109.203,177.632 108.685,177.600 108.223 C 177.567 107.761,177.431 106.977,177.297 106.480 C 177.164 105.983,177.046 105.306,177.037 104.975 C 177.028 104.645,176.935 104.375,176.831 104.375 C 176.727 104.375,176.693 104.292,176.756 104.191 C 176.863 104.017,176.342 100.876,176.094 100.208 C 175.912 99.717,175.840 99.346,175.707 98.229 C 175.639 97.656,175.547 97.128,175.503 97.056 C 175.458 96.983,175.369 96.561,175.305 96.118 C 175.241 95.675,175.138 95.172,175.076 95.000 C 175.015 94.828,174.929 94.453,174.885 94.167 C 174.842 93.880,174.755 93.411,174.693 93.125 C 174.630 92.839,174.529 92.323,174.468 91.979 C 174.218 90.576,173.392 86.771,173.337 86.771 C 173.322 86.771,173.266 86.354,173.214 85.844 C 173.161 85.334,173.049 84.865,172.965 84.802 C 172.881 84.739,172.783 84.547,172.748 84.375 C 172.712 84.203,172.406 83.781,172.067 83.438 L 171.450 82.813 158.329 82.764 C 148.571 82.729,145.208 82.778,145.208 82.955 M156.618 99.074 C 156.959 99.180,157.302 100.092,157.396 101.146 C 157.625 103.703,157.745 104.720,157.849 105.000 C 157.976 105.338,157.998 105.516,158.212 108.006 C 158.291 108.914,158.413 109.751,158.483 109.866 C 158.554 109.980,158.636 110.534,158.666 111.097 C 158.695 111.660,158.770 112.252,158.832 112.414 C 158.928 112.664,157.964 112.708,152.488 112.708 L 146.031 112.708 146.365 112.063 C 146.548 111.708,146.729 111.263,146.767 111.073 C 146.805 110.884,147.174 110.170,147.587 109.487 C 148.001 108.804,148.304 108.148,148.262 108.029 C 148.219 107.910,148.365 107.555,148.586 107.240 C 148.806 106.924,148.927 106.667,148.853 106.667 C 148.780 106.667,148.868 106.519,149.048 106.339 C 149.228 106.159,149.375 105.838,149.375 105.625 C 149.375 105.412,149.521 105.092,149.699 104.914 C 149.877 104.736,150.062 104.385,150.111 104.134 C 150.159 103.882,150.279 103.623,150.377 103.557 C 150.476 103.491,150.811 102.875,151.123 102.188 C 151.434 101.500,151.846 100.703,152.037 100.417 C 152.228 100.130,152.387 99.805,152.390 99.694 C 152.393 99.582,152.606 99.387,152.863 99.258 C 153.120 99.130,153.275 98.970,153.208 98.902 C 153.080 98.775,156.152 98.930,156.618 99.074 " stroke="none" fill="#e4db0e" fill-rule="evenodd"></path><path id="path2" d="M195.405 88.281 L 194.688 89.063 195.469 88.345 C 196.196 87.676,196.346 87.500,196.187 87.500 C 196.152 87.500,195.800 87.852,195.405 88.281 M34.844 98.489 C 37.451 98.522,41.716 98.522,44.323 98.489 C 46.930 98.456,44.797 98.429,39.583 98.429 C 34.370 98.429,32.237 98.456,34.844 98.489 M100.000 98.698 C 100.000 98.840,107.787 98.837,117.708 98.692 C 119.828 98.661,116.711 98.615,110.781 98.589 C 104.852 98.563,100.000 98.612,100.000 98.698 M215.885 98.698 C 218.378 98.731,222.456 98.731,224.948 98.698 C 227.440 98.664,225.401 98.637,220.417 98.637 C 215.432 98.637,213.393 98.664,215.885 98.698 M189.011 110.104 C 189.013 110.563,189.056 110.725,189.106 110.466 C 189.156 110.207,189.154 109.832,189.101 109.633 C 189.049 109.434,189.009 109.646,189.011 110.104 M44.531 127.031 C 47.997 127.063,53.669 127.063,57.135 127.031 C 60.602 126.999,57.766 126.973,50.833 126.973 C 43.901 126.973,41.065 126.999,44.531 127.031 M193.713 127.031 C 196.958 127.063,202.208 127.063,205.379 127.031 C 208.551 126.999,205.896 126.972,199.479 126.972 C 193.063 126.972,190.468 126.999,193.713 127.031 M144.792 128.065 C 151.375 128.212,157.084 128.215,157.084 128.073 C 157.083 127.987,153.732 127.937,149.635 127.962 C 145.539 127.987,143.359 128.033,144.792 128.065 " stroke="none" fill="#ecdc0c" fill-rule="evenodd"></path><path id="path3" d="" stroke="none" fill="#ecd40c" fill-rule="evenodd"></path><path id="path4" d="" stroke="none" fill="#f0dc14" fill-rule="evenodd"></path></g></svg>